<svg width="28" height="15" viewBox="0 0 28 15" fill="none" xmlns="http://www.w3.org/2000/svg">
    <path fill-rule="evenodd" clip-rule="evenodd" d="M12.8454 2.23917C11.485 0.857001 9.59259 0 7.5 0C3.35786 0 0 3.35786 0 7.5C0 11.6421 3.35786 15 7.5 15C9.50619 15 11.3284 14.2123 12.6742 12.9293C11.6202 11.4554 11 9.65014 11 7.7C11 5.64651 11.6877 3.75364 12.8454 2.23917Z" fill="black"/>
    <path d="M18.4365 0.429688H21.5798V15.0011H18.4365V0.429688Z" fill="black"/>
    <path d="M27.2939 6.14453L27.2939 9.2878L12.7225 9.2878L12.7225 6.14453L27.2939 6.14453Z" fill="black"/>
    <path d="M24.0488 1.45312L26.2715 3.67575L15.9679 13.9793L13.7453 11.7567L24.0488 1.45312Z" fill="black"/>
    <path d="M26.2715 11.7578L24.0489 13.9804L13.7453 3.67688L15.9679 1.45426L26.2715 11.7578Z" fill="black"/>
</svg>